<?xml version="1.0" standalone="no"?><!DOCTYPE svg PUBLIC "-//W3C//DTD SVG 1.1//EN" "http://www.w3.org/Graphics/SVG/1.1/DTD/svg11.dtd"><svg t="1657620083264" class="icon" viewBox="0 0 1024 1024" version="1.1" xmlns="http://www.w3.org/2000/svg" p-id="10250" xmlns:xlink="http://www.w3.org/1999/xlink" width="128" height="128"><defs><style type="text/css">@font-face { font-family: feedback-iconfont; src: url("//at.alicdn.com/t/font_1031158_u69w8yhxdu.woff2?t=1630033759944") format("woff2"), url("//at.alicdn.com/t/font_1031158_u69w8yhxdu.woff?t=1630033759944") format("woff"), url("//at.alicdn.com/t/font_1031158_u69w8yhxdu.ttf?t=1630033759944") format("truetype"); }
</style></defs><path d="M0 0h1024v1024H0z" fill="#F5F5F5" p-id="10251"></path><path d="M789.3248 234.6752H234.6752v554.6496h554.6496V234.6752z" fill="#FFFFFF" fill-opacity=".01" p-id="10252"></path><path d="M512 465.7664a80.896 80.896 0 1 0 0-161.7664 80.896 80.896 0 0 0 0 161.792zM304 706.1248v13.8752h416v-13.8752c0-51.7632 0-77.6448-10.0864-97.4336a92.416 92.416 0 0 0-40.3968-40.3968c-19.7632-10.0864-45.6448-10.0864-97.4336-10.0864h-120.1664c-51.7888 0-77.6704 0-97.4336 10.0864a92.416 92.416 0 0 0-40.3968 40.3968c-10.0864 19.7888-10.0864 45.6704-10.0864 97.4336z" fill="#999999" p-id="10253"></path><path d="M789.3248 234.6752H234.6752v554.6496h554.6496V234.6752z" fill="#FFFFFF" fill-opacity=".01" p-id="10254"></path><path d="M512 282.6752a102.2208 102.2208 0 1 0 0 204.4416 102.2208 102.2208 0 0 0 0-204.4416z" fill="#999999" p-id="10255"></path><path d="M281.6 724.8384c0 9.7024 7.8592 17.5616 17.5616 17.5616h425.6768a17.5616 17.5616 0 0 0 17.5616-17.5616c0-65.536 0-98.304-11.1616-123.3408-9.8048-22.016-25.472-39.936-44.7488-51.1488C664.576 537.6 635.904 537.6 578.56 537.6h-133.12c-57.344 0-86.016 0-107.9296 12.7488-19.2768 11.2128-34.9184 29.1328-44.7488 51.1488C281.6 626.5344 281.6 659.3024 281.6 724.8384z" fill="#999999" p-id="10256"></path></svg>