<svg xmlns="http://www.w3.org/2000/svg" width="14" height="14" viewBox="0 0 14 14">
  <defs>
    <style>
      .cls-1 {
        fill: rgba(255,255,255,0.01);
      }

      .cls-2 {
        fill: #606266;
      }
    </style>
  </defs>
  <g id="组_4612" data-name="组 4612" transform="translate(-655 -690)">
    <rect id="矩形_7097" data-name="矩形 7097" class="cls-1" width="14" height="14" transform="translate(655 690)"/>
    <g id="图层_2" data-name="图层 2" transform="translate(656.72 690.86)">
      <g id="图层_1" data-name="图层 1">
        <path id="路径_2716" data-name="路径 2716" class="cls-2" d="M9.763,0H.7A.7.7,0,0,0,0,.7v11.17a.7.7,0,0,0,.7.7H9.763a.7.7,0,0,0,.7-.7V.7A.7.7,0,0,0,9.763,0Zm-.44,11.434H1.143V1.143H9.323Z" transform="translate(0)"/>
        <path id="路径_2717" data-name="路径 2717" class="cls-2" d="M24.062,43.624h3.2a.562.562,0,1,0,0-1.124h-3.2a.562.562,0,1,0,0,1.124Z" transform="translate(-21.408 -38.756)"/>
        <path id="路径_2718" data-name="路径 2718" class="cls-2" d="M24.079,85.624H28.8a.562.562,0,1,0,0-1.124H24.079a.562.562,0,1,0,0,1.124Z" transform="translate(-21.468 -77.056)"/>
      </g>
    </g>
  </g>
</svg>
