<?xml version="1.0" encoding="utf-8"?>
<!-- Generator: Adobe Illustrator 22.0.0, SVG Export Plug-In . SVG Version: 6.00 Build 0)  -->
<svg version="1.1" id="图层_1" xmlns="http://www.w3.org/2000/svg" xmlns:xlink="http://www.w3.org/1999/xlink" x="0px" y="0px"
	 viewBox="0 0 18 18" style="enable-background:new 0 0 18 18;" xml:space="preserve">
<style type="text/css">
	.st0{fill:#FFFFFF;}
	.st1{fill:#8F8F8F;}
	.st2{fill:#565656;}
	.st3{fill:#666666;}
</style>
<path class="st2" d="M6,5c0-1.7,1.3-3,3-3c1.7,0,3,1.3,3,3c0,1.7-1.3,3-3,3C7.3,8,6,6.7,6,5z M9,3C7.9,3,7,3.9,7,5s0.9,2,2,2
	c1.1,0,2-0.9,2-2S10.1,3,9,3z"/>
<path class="st1" d="M12.5,10h-7C3.6,10,2,11.6,2,13.5v2C2,15.8,2.2,16,2.5,16h13c0.3,0,0.5-0.2,0.5-0.5v-2C16,11.6,14.4,10,12.5,10
	z M15,15H3v-1.5C3,12.1,4.1,11,5.5,11h7c1.4,0,2.5,1.1,2.5,2.5V15z"/>
</svg>
