<?xml version="1.0" encoding="utf-8"?>
<!-- Generator: Adobe Illustrator 22.0.0, SVG Export Plug-In . SVG Version: 6.00 Build 0)  -->
<svg version="1.1" id="图层_1" xmlns="http://www.w3.org/2000/svg" xmlns:xlink="http://www.w3.org/1999/xlink" x="0px" y="0px"
	 viewBox="0 0 18 18" style="enable-background:new 0 0 18 18;" xml:space="preserve">
<style type="text/css">
	.st0{fill:#FFFFFF;}
	.st1{fill:#8F8F8F;}
	.st2{fill:#565656;}
	.st3{fill:#666666;}
</style>
<path class="st1" d="M7.5,11C7.2,11,7,11.2,7,11.5V15h1v-3h2v3h1v-3.5c0-0.3-0.2-0.5-0.5-0.5H7.5z"/>
<path class="st0" d="M16.3,7.6l-7-5.5C9.1,2,8.9,2,8.7,2.1l-7,5.5C1.5,7.8,1.4,8.1,1.6,8.3s0.5,0.3,0.7,0.1L3,7.9v7.6
	C3,15.8,3.2,16,3.5,16h11c0.3,0,0.5-0.2,0.5-0.5V7.9l0.7,0.5c0.2,0.2,0.5,0.1,0.7-0.1S16.5,7.8,16.3,7.6z M14,15H4V7.1l5-3.9l5,3.9
	V15z"/>
</svg>
