<?xml version="1.0" encoding="utf-8"?>
<!-- Generator: Adobe Illustrator 22.0.0, SVG Export Plug-In . SVG Version: 6.00 Build 0)  -->
<svg version="1.1" id="图层_1" xmlns="http://www.w3.org/2000/svg" xmlns:xlink="http://www.w3.org/1999/xlink" x="0px" y="0px"
	 viewBox="0 0 18 18" style="enable-background:new 0 0 18 18;" xml:space="preserve">
<style type="text/css">
	.st0{fill:#FFFFFF;}
	.st1{fill:#8F8F8F;}
	.st2{fill:#565656;}
	.st3{fill:#666666;}
</style>
<path class="st0" d="M1,3.7C1,3.3,1.3,3,1.7,3h14.6C16.7,3,17,3.3,17,3.7v10.6c0,0.4-0.3,0.7-0.7,0.7H1.7C1.3,15,1,14.7,1,14.3V3.7z
	 M2,4v10h14V4H2z"/>
<path class="st1" d="M12.5,8.9c0.3,0,0.5,0.2,0.5,0.5V12c0,0.3-0.2,0.5-0.5,0.5S12,12.3,12,12V9.4C12,9.1,12.2,8.9,12.5,8.9z"/>
<path class="st1" d="M9,5.5c0.3,0,0.5,0.2,0.5,0.5v6c0,0.3-0.2,0.5-0.5,0.5S8.5,12.3,8.5,12V6C8.5,5.7,8.7,5.5,9,5.5z"/>
<path class="st1" d="M5.5,7C5.8,7,6,7.2,6,7.5V12c0,0.3-0.2,0.5-0.5,0.5S5,12.3,5,12V7.5C5,7.2,5.2,7,5.5,7z"/>
</svg>
