<?xml version="1.0" encoding="utf-8"?>
<!-- Generator: Adobe Illustrator 22.0.0, SVG Export Plug-In . SVG Version: 6.00 Build 0)  -->
<svg version="1.1" id="图层_1" xmlns="http://www.w3.org/2000/svg" xmlns:xlink="http://www.w3.org/1999/xlink" x="0px" y="0px"
	 viewBox="0 0 18 18" style="enable-background:new 0 0 18 18;" xml:space="preserve">
<style type="text/css">
	.st0{fill:#FFFFFF;}
	.st1{fill:#8F8F8F;}
	.st2{fill:#565656;}
	.st3{fill:#666666;}
</style>
<path class="st0" d="M9,2C5.1,2,2,5.1,2,9c0,3.9,3.1,7,7,7c3.9,0,7-3.1,7-7C16,5.1,12.9,2,9,2z M1,9c0-4.4,3.6-8,8-8
	c4.4,0,8,3.6,8,8c0,4.4-3.6,8-8,8C4.6,17,1,13.4,1,9z"/>
<path class="st1" d="M8.5,2C8.7,2,8.8,2,9,2s0.3,0,0.5,0v3c0,0.3-0.2,0.5-0.5,0.5S8.5,5.3,8.5,5V2z"/>
<path class="st1" d="M2,9.5C2,9.3,2,9.2,2,9s0-0.3,0-0.5h3c0.3,0,0.5,0.2,0.5,0.5S5.3,9.5,5,9.5H2z"/>
<path class="st1" d="M9.5,16c-0.2,0-0.3,0-0.5,0s-0.3,0-0.5,0v-3c0-0.3,0.2-0.5,0.5-0.5s0.5,0.2,0.5,0.5V16z"/>
<path class="st1" d="M16,8.5c0,0.2,0,0.3,0,0.5s0,0.3,0,0.5h-3c-0.3,0-0.5-0.2-0.5-0.5s0.2-0.5,0.5-0.5H16z"/>
</svg>
