<?xml version="1.0" encoding="utf-8"?>
<!-- Generator: Adobe Illustrator 22.0.0, SVG Export Plug-In . SVG Version: 6.00 Build 0)  -->
<svg version="1.1" id="图层_1" xmlns="http://www.w3.org/2000/svg" xmlns:xlink="http://www.w3.org/1999/xlink" x="0px" y="0px"
	 viewBox="0 0 18 18" style="enable-background:new 0 0 18 18;" xml:space="preserve">
<style type="text/css">
	.st0{fill:#FFFFFF;}
	.st1{fill:#8F8F8F;}
	.st2{fill:#565656;}
	.st3{fill:#666666;}
</style>
<path class="st0" d="M1,9c0-4.4,3.6-8,8-8c4.4,0,8,3.6,8,8c0,4.4-3.6,8-8,8C4.6,17,1,13.4,1,9z M9,2C5.1,2,2,5.1,2,9s3.1,7,7,7
	s7-3.1,7-7S12.9,2,9,2z"/>
<path class="st1" d="M13.5,8.5C13.8,8.5,14,8.7,14,9c0,2.8-2.2,5-5,5c-0.3,0-0.5-0.2-0.5-0.5S8.7,13,9,13c2.2,0,4-1.8,4-4
	C13,8.7,13.2,8.5,13.5,8.5z"/>
</svg>
