<?xml version="1.0" encoding="utf-8"?>
<!-- Generator: Adobe Illustrator 22.0.0, SVG Export Plug-In . SVG Version: 6.00 Build 0)  -->
<svg version="1.1" id="图层_1" xmlns="http://www.w3.org/2000/svg" xmlns:xlink="http://www.w3.org/1999/xlink" x="0px" y="0px"
	 viewBox="0 0 18 18" style="enable-background:new 0 0 18 18;" xml:space="preserve">
<style type="text/css">
	.st0{fill:#FFFFFF;}
	.st1{fill:#8F8F8F;}
	.st2{fill:#565656;}
	.st3{fill:#666666;}
</style>
<path class="st1" d="M6.9,1.3c0.2-0.1,0.5,0,0.6,0.3c0.3,0.6,0.9,1,1.6,1s1.3-0.4,1.6-1c0.1-0.2,0.3-0.3,0.6-0.3
	c1.3,0.3,2.4,1,3.3,1.9c0.2,0.2,0.2,0.4,0.1,0.6c-0.1,0.2-0.2,0.5-0.2,0.8c0,1,0.8,1.8,1.8,1.8l0,0c0.2,0,0.4,0.1,0.5,0.4
	C16.9,7.4,17,8.2,17,9c0,0.6-0.1,1.1-0.2,1.6c-0.1,0.3-0.3,0.4-0.5,0.4c-0.1,0-0.1,0-0.2,0c-1,0-1.8,0.8-1.8,1.8
	c0,0.4,0.2,0.8,0.4,1.1c0.2,0.2,0.2,0.5,0,0.7c-0.9,1-2.1,1.7-3.5,2.1c-0.3,0.1-0.5-0.1-0.6-0.3c-0.2-0.7-0.9-1.2-1.7-1.2
	s-1.4,0.5-1.7,1.2c-0.1,0.3-0.4,0.4-0.6,0.3c-1.3-0.4-2.5-1.1-3.5-2.1c-0.2-0.2-0.2-0.5,0-0.7c0.3-0.3,0.4-0.7,0.4-1.1
	c0-1-0.8-1.8-1.8-1.8c-0.1,0-0.1,0-0.2,0c-0.3,0-0.5-0.1-0.5-0.4C1.1,10.1,1,9.6,1,9c0-0.8,0.1-1.6,0.4-2.4c0.1-0.2,0.3-0.4,0.5-0.4
	l0,0c1,0,1.8-0.8,1.8-1.8c0-0.3-0.1-0.5-0.2-0.8C3.3,3.5,3.4,3.3,3.6,3.1C4.5,2.3,5.6,1.6,6.9,1.3z M4.5,3.6
	c0.1,0.3,0.1,0.6,0.1,0.9c0,1.4-1,2.6-2.4,2.7C2.1,7.8,2,8.4,2,9c0,0.3,0,0.7,0.1,1c1.4,0.1,2.6,1.3,2.6,2.7c0,0.5-0.1,1-0.4,1.4
	c0.7,0.6,1.5,1.1,2.3,1.4C7,14.7,8,14.1,9,14.1c1,0,2,0.6,2.4,1.4c0.9-0.3,1.7-0.8,2.3-1.4c-0.2-0.4-0.4-0.9-0.4-1.4
	c0-1.5,1.1-2.6,2.6-2.7C16,9.7,16,9.3,16,9c0-0.6-0.1-1.2-0.2-1.8c-1.4-0.2-2.4-1.3-2.4-2.7c0-0.3,0-0.6,0.1-0.9
	c-0.7-0.6-1.4-1-2.3-1.3C10.7,3.1,9.9,3.5,9,3.5S7.3,3.1,6.8,2.4C5.9,2.6,5.2,3.1,4.5,3.6z"/>
<path class="st2" d="M6,9c0-1.7,1.3-3,3-3c1.7,0,3,1.3,3,3c0,1.7-1.3,3-3,3C7.3,12,6,10.7,6,9z M9,7C7.9,7,7,7.9,7,9
	c0,1.1,0.9,2,2,2c1.1,0,2-0.9,2-2C11,7.9,10.1,7,9,7z"/>
</svg>
